# File exported by Houdini 21.0.559 (www.sidefx.com)
# 55 points
# 318 vertices
# 106 primitives
# Bounds: [-0.98884505, -1.0295893, -1.03111339] to [1.06150198, 1.00578952, 1.08019209]
g 
v 0.0775743797 -0.819468796 -0.139440477
v 0.513401091 0.858607709 -0.125981525
v 0.190173417 1.00578952 0.0201932676
v -0.197069064 0.926239192 -0.00252578151
v 0.193801105 0.828696012 -0.501361251
v -0.334552824 0.807790756 -0.389777273
v -0.638125658 0.814703643 0.0125751458
v -0.252090275 0.728115439 0.34632647
v 0.504043758 0.9230268 0.369451344
v 0.78142333 0.479719073 -0.0330454707
v 0.685137749 0.518813014 -0.530586541
v 0.256773055 0.5323627 -0.872004986
v -0.311034173 0.546627998 -0.853923917
v -0.763857365 0.699330449 -0.464718193
v -0.98884505 0.572003126 0.0032080505
v -0.268995464 0.511101842 0.854498148
v 0.193699926 0.621878684 0.557688296
v 0.812317193 0.112114333 -0.0177701227
v 0.729763389 0.162576854 -0.538643539
v 0.314474165 0.144505888 -0.988664508
v -0.305267721 0.178815171 -0.916033626
v -0.832279503 0.250677615 -0.608491659
v -0.80680716 0.301535308 0.480577946
v -0.35187459 0.183065474 1.02270746
v 0.32962516 0.201025501 1.01752567
v 0.783630013 0.338068485 0.595518589
v 1.06150198 -0.309555858 -0.00838596188
v 0.84643501 -0.184667528 -0.581813931
v 0.411439896 -0.183514655 -0.945465684
v -0.322961271 -0.220249861 -0.888750315
v -0.852428734 -0.157949388 -0.622770846
v -0.837902188 0.127819985 -0.0362252407
v -0.343617469 -0.210788116 1.08019209
v 0.208771199 -0.445532918 1.0215416
v 0.942419708 -0.017955184 0.504097044
v 0.536897957 -0.424595952 -0.528038919
v -0.366493911 -0.659236848 -1.01800442
v -0.823276281 -0.612779021 -0.614435017
v -0.957341373 -0.552922547 -0.00814053416
v -0.652532458 -0.193317696 0.537720859
v 0.636722803 -0.780217886 -0.0542748198
v 0.20890905 -0.732300401 -0.626542449
v -0.671526432 -0.98949188 -0.536307931
v -0.53787601 -0.797886014 0.379652709
v -0.260825783 -0.539468825 0.626742363
v 0.332455784 -0.736418247 0.814810038
v 0.61773634 -0.923702419 0.455426693
v 0.0726206154 -0.912230253 0.259391338
v -0.230522007 -0.849481225 -0.438629746
v -0.542746246 -1.0295893 -0.215115115
v -0.301418245 -0.970145285 0.157413349
v 0.0907501876 -0.335369796 -1.03111339
v -0.0532482378 0.0424357913 1.02642381
v 0.649323165 -0.0658409894 0.791646719
v 0.783184171 -0.552655399 0.580329537
g 
f 3 5 4
f 4 5 6
f 3 4 8
f 3 8 17
f 3 17 9
f 3 9 2
f 49 51 50
f 51 49 1
f 51 1 48
f 2 5 3
f 6 7 4
f 7 6 14
f 8 4 7
f 2 11 5
f 11 2 10
f 12 5 11
f 5 13 6
f 13 5 12
f 14 6 13
f 14 15 7
f 7 23 8
f 23 7 15
f 16 8 23
f 17 8 16
f 17 26 9
f 9 10 2
f 10 9 26
f 10 19 11
f 19 10 18
f 11 20 12
f 20 11 19
f 12 21 13
f 21 12 20
f 13 22 14
f 22 13 21
f 14 32 15
f 32 14 22
f 23 15 32
f 16 23 24
f 16 25 17
f 25 16 53
f 26 17 25
f 26 18 10
f 18 28 19
f 28 18 27
f 19 29 20
f 29 19 28
f 20 30 21
f 30 20 52
f 21 31 22
f 31 21 30
f 32 22 31
f 32 40 23
f 40 33 24
f 53 34 25
f 34 53 33
f 54 35 26
f 35 54 55
f 35 27 18
f 27 36 28
f 29 36 52
f 36 29 28
f 52 37 30
f 37 52 42
f 30 38 31
f 38 30 37
f 31 39 32
f 39 31 38
f 40 32 39
f 40 45 33
f 46 34 45
f 27 35 55
f 27 41 36
f 42 36 41
f 42 49 37
f 37 43 38
f 43 37 49
f 38 50 39
f 50 38 43
f 39 44 40
f 44 39 50
f 45 40 44
f 46 47 55
f 55 41 27
f 41 55 47
f 1 41 48
f 41 1 42
f 49 42 1
f 49 50 43
f 50 51 44
f 44 48 45
f 48 44 51
f 45 48 46
f 46 48 47
f 47 48 41
f 52 20 29
f 42 52 36
f 45 34 33
f 53 16 24
f 33 53 24
f 24 23 40
f 26 25 54
f 34 54 25
f 18 26 35
f 55 54 34
f 46 55 34
